<svg xmlns="http://www.w3.org/2000/svg" width="2100" height="900" viewBox="0 0 2100 900" fill="none">
  <defs>
    <filter id="shadow" x="-20%" y="-20%" width="140%" height="140%">
      <feDropShadow dx="0" dy="12" stdDeviation="18" flood-color="#000000" flood-opacity="0.28"/>
    </filter>
    <linearGradient id="leftFade" x1="0" y1="0" x2="1180" y2="0" gradientUnits="userSpaceOnUse">
      <stop offset="0" stop-color="#06070C"/>
      <stop offset="0.46" stop-color="#0B0D14" stop-opacity="0.96"/>
      <stop offset="0.76" stop-color="#10131A" stop-opacity="0.58"/>
      <stop offset="1" stop-color="#10131A" stop-opacity="0"/>
    </linearGradient>
    <radialGradient id="glow" cx="0" cy="0" r="1" gradientUnits="userSpaceOnUse" gradientTransform="translate(1080 380) rotate(141) scale(620 540)">
      <stop stop-color="#FF8A1F" stop-opacity="0.34"/>
      <stop offset="0.46" stop-color="#FF8A1F" stop-opacity="0.12"/>
      <stop offset="1" stop-color="#FF8A1F" stop-opacity="0"/>
    </radialGradient>
    <linearGradient id="cardTop" x1="0" y1="0" x2="0" y2="1">
      <stop offset="0" stop-color="#FFFFFF"/>
      <stop offset="1" stop-color="#F5F6F8"/>
    </linearGradient>
    <style>
      .headline { font-family: Arial, Helvetica, sans-serif; font-weight: 700; fill: #FFFFFF; }
      .subline { font-family: Arial, Helvetica, sans-serif; font-weight: 500; fill: #FF7A1A; }
      .cardText { font-family: Arial, Helvetica, sans-serif; font-weight: 700; fill: #111827; }
    </style>
  </defs>

  <image href="/images/blog/63-car-buyers-judge-dealers-review-replies/hero.jpg" x="0" y="-140" width="2100" height="1181" preserveAspectRatio="xMidYMid slice"/>
  <rect x="0" y="0" width="1220" height="900" fill="url(#leftFade)"/>
  <rect x="0" y="0" width="2100" height="900" fill="url(#glow)"/>

  <text x="88" y="302" class="headline" font-size="110">
    <tspan x="88" dy="0">Buyers judge</tspan>
    <tspan x="88" dy="132">you by your</tspan>
    <tspan x="88" dy="132">replies.</tspan>
  </text>
  <text x="92" y="790" class="subline" font-size="78">Where are yours?</text>

  <g filter="url(#shadow)" transform="translate(1265 112) rotate(2)">
    <rect width="228" height="122" rx="22" fill="url(#cardTop)"/>
    <text x="32" y="56" class="cardText" font-size="54">
      <tspan fill="#4285F4">G</tspan><tspan fill="#EA4335">o</tspan><tspan fill="#FBBC05">o</tspan><tspan fill="#4285F4">g</tspan><tspan fill="#34A853">l</tspan><tspan fill="#EA4335">e</tspan>
    </text>
    <g fill="#F59E0B">
      <circle cx="66" cy="90" r="8"/>
      <circle cx="92" cy="90" r="8"/>
      <circle cx="118" cy="90" r="8"/>
      <circle cx="144" cy="90" r="8"/>
      <circle cx="170" cy="90" r="8"/>
    </g>
  </g>

  <g filter="url(#shadow)" transform="translate(1320 310) rotate(6)">
    <rect width="232" height="126" rx="22" fill="url(#cardTop)"/>
    <text x="46" y="62" class="cardText" font-size="26" fill="#F97316">DealerRater</text>
    <circle cx="116" cy="52" r="28" stroke="#CBD5E1" stroke-width="6" fill="none"/>
    <path d="M128 38 L146 22" stroke="#F97316" stroke-width="6" stroke-linecap="round"/>
    <g fill="#F59E0B">
      <circle cx="64" cy="96" r="8"/>
      <circle cx="90" cy="96" r="8"/>
      <circle cx="116" cy="96" r="8"/>
      <circle cx="142" cy="96" r="8"/>
      <circle cx="168" cy="96" r="8"/>
    </g>
  </g>

  <g filter="url(#shadow)" transform="translate(1240 520) rotate(-7)">
    <rect width="236" height="126" rx="22" fill="url(#cardTop)"/>
    <ellipse cx="116" cy="51" rx="66" ry="28" fill="#4C1D95" stroke="#9CA3AF" stroke-width="4"/>
    <text x="65" y="60" class="cardText" font-size="28" fill="#FFFFFF">cars.com</text>
    <g fill="#F59E0B">
      <circle cx="66" cy="96" r="8"/>
      <circle cx="92" cy="96" r="8"/>
      <circle cx="118" cy="96" r="8"/>
      <circle cx="144" cy="96" r="8"/>
      <circle cx="170" cy="96" r="8"/>
    </g>
  </g>

  <g filter="url(#shadow)" transform="translate(1320 706) rotate(-5)">
    <rect width="232" height="126" rx="22" fill="url(#cardTop)"/>
    <rect x="34" y="38" width="26" height="16" rx="4" fill="#2563EB"/>
    <circle cx="44" cy="58" r="8" fill="#2563EB"/>
    <circle cx="66" cy="58" r="8" fill="#2563EB"/>
    <text x="78" y="66" class="cardText" font-size="26" fill="#2563EB">edmunds</text>
    <g fill="#F59E0B">
      <circle cx="66" cy="96" r="8"/>
      <circle cx="92" cy="96" r="8"/>
      <circle cx="118" cy="96" r="8"/>
      <circle cx="144" cy="96" r="8"/>
      <circle cx="170" cy="96" r="8"/>
    </g>
  </g>

  <g filter="url(#shadow)" transform="translate(1575 778) rotate(-8)">
    <rect width="232" height="110" rx="22" fill="url(#cardTop)"/>
    <text x="48" y="60" class="cardText" font-size="30" fill="#2563EB">facebook</text>
    <g fill="#F59E0B">
      <circle cx="66" cy="84" r="8"/>
      <circle cx="92" cy="84" r="8"/>
      <circle cx="118" cy="84" r="8"/>
      <circle cx="144" cy="84" r="8"/>
      <circle cx="170" cy="84" r="8"/>
    </g>
  </g>
</svg>
