<svg width="1600" height="823" viewBox="0 0 1600 823" fill="none" xmlns="http://www.w3.org/2000/svg" role="img" aria-labelledby="title desc">
  <title id="title">Abstract five-rooftop revenue system visual</title>
  <desc id="desc">Dark editorial visual with five colored operating lanes converging into a dealership group revenue system.</desc>
  <rect width="1600" height="823" fill="#040404"/>
  <rect width="1600" height="823" fill="url(#backdrop)"/>
  <rect width="1600" height="823" fill="url(#warmCorner)"/>

  <g opacity="0.22">
    <path d="M0 160H1600" stroke="#ffffff" stroke-opacity="0.07"/>
    <path d="M0 320H1600" stroke="#ffffff" stroke-opacity="0.05"/>
    <path d="M0 480H1600" stroke="#ffffff" stroke-opacity="0.05"/>
    <path d="M0 640H1600" stroke="#ffffff" stroke-opacity="0.07"/>
    <path d="M300 0V823" stroke="#ffffff" stroke-opacity="0.05"/>
    <path d="M600 0V823" stroke="#ffffff" stroke-opacity="0.04"/>
    <path d="M900 0V823" stroke="#ffffff" stroke-opacity="0.04"/>
    <path d="M1200 0V823" stroke="#ffffff" stroke-opacity="0.05"/>
  </g>

  <g opacity="0.24">
    <circle cx="1184" cy="190" r="210" stroke="#FF7404" stroke-width="1"/>
    <circle cx="1184" cy="190" r="126" stroke="#FF7404" stroke-width="1"/>
    <circle cx="1184" cy="190" r="52" fill="#FF7404" fill-opacity="0.12" stroke="#FF7404" stroke-width="1"/>
  </g>

  <g filter="url(#softShadow)">
    <path d="M584 263C719 263 742 218 876 218H1340" stroke="#FF7404" stroke-width="46" stroke-linecap="round"/>
    <path d="M650 342C786 342 810 298 944 298H1428" stroke="#FFC857" stroke-width="44" stroke-linecap="round"/>
    <path d="M544 421C704 421 734 376 888 376H1336" stroke="#22D3EE" stroke-width="44" stroke-linecap="round"/>
    <path d="M684 500C820 500 850 456 986 456H1444" stroke="#7DD3FC" stroke-width="42" stroke-linecap="round"/>
    <path d="M498 579C642 579 674 536 806 536H1208" stroke="#A3E635" stroke-width="40" stroke-linecap="round"/>
  </g>

  <g opacity="0.82">
    <circle cx="584" cy="263" r="13" fill="#FF7404"/>
    <circle cx="650" cy="342" r="13" fill="#FFC857"/>
    <circle cx="544" cy="421" r="13" fill="#22D3EE"/>
    <circle cx="684" cy="500" r="13" fill="#7DD3FC"/>
    <circle cx="498" cy="579" r="13" fill="#A3E635"/>
  </g>

  <g opacity="0.36">
    <path d="M1264 158L1306 210L1356 174L1402 246L1456 212" stroke="#ffffff" stroke-width="2" stroke-linecap="round" stroke-linejoin="round"/>
    <path d="M1164 292L1206 332L1250 306L1302 368L1370 326" stroke="#ffffff" stroke-width="2" stroke-linecap="round" stroke-linejoin="round"/>
    <path d="M1110 526L1160 488L1210 548L1288 512L1358 566" stroke="#ffffff" stroke-width="2" stroke-linecap="round" stroke-linejoin="round"/>
  </g>

  <g opacity="0.18">
    <rect x="104" y="112" width="350" height="598" rx="38" fill="#0E1117" stroke="#2A2F3A"/>
    <path d="M160 198H378" stroke="#ffffff" stroke-opacity="0.18" stroke-width="12" stroke-linecap="round"/>
    <path d="M160 278H332" stroke="#ffffff" stroke-opacity="0.12" stroke-width="12" stroke-linecap="round"/>
    <path d="M160 358H404" stroke="#ffffff" stroke-opacity="0.16" stroke-width="12" stroke-linecap="round"/>
    <path d="M160 438H300" stroke="#ffffff" stroke-opacity="0.11" stroke-width="12" stroke-linecap="round"/>
    <path d="M160 518H372" stroke="#ffffff" stroke-opacity="0.13" stroke-width="12" stroke-linecap="round"/>
    <path d="M160 598H274" stroke="#ffffff" stroke-opacity="0.1" stroke-width="12" stroke-linecap="round"/>
  </g>

  <rect width="1600" height="823" fill="url(#leftFade)"/>
  <rect width="1600" height="823" fill="url(#bottomFade)"/>

  <defs>
    <radialGradient id="backdrop" cx="0" cy="0" r="1" gradientUnits="userSpaceOnUse" gradientTransform="translate(1040 310) rotate(153.435) scale(1030 600)">
      <stop stop-color="#18212F" stop-opacity="0.75"/>
      <stop offset="0.52" stop-color="#071013" stop-opacity="0.62"/>
      <stop offset="1" stop-color="#040404" stop-opacity="0"/>
    </radialGradient>
    <radialGradient id="warmCorner" cx="0" cy="0" r="1" gradientUnits="userSpaceOnUse" gradientTransform="translate(1390 78) rotate(132.357) scale(520 260)">
      <stop stop-color="#FF7404" stop-opacity="0.42"/>
      <stop offset="1" stop-color="#FF7404" stop-opacity="0"/>
    </radialGradient>
    <linearGradient id="leftFade" x1="0" y1="0" x2="842" y2="0" gradientUnits="userSpaceOnUse">
      <stop stop-color="#020202"/>
      <stop offset="0.42" stop-color="#020202" stop-opacity="0.94"/>
      <stop offset="1" stop-color="#020202" stop-opacity="0"/>
    </linearGradient>
    <linearGradient id="bottomFade" x1="800" y1="345" x2="800" y2="823" gradientUnits="userSpaceOnUse">
      <stop stop-color="#020202" stop-opacity="0"/>
      <stop offset="1" stop-color="#020202" stop-opacity="0.84"/>
    </linearGradient>
    <filter id="softShadow" x="430" y="174" width="1084" height="449" filterUnits="userSpaceOnUse" color-interpolation-filters="sRGB">
      <feDropShadow dx="0" dy="22" stdDeviation="24" flood-color="#000000" flood-opacity="0.5"/>
    </filter>
  </defs>
</svg>
