<svg xmlns="http://www.w3.org/2000/svg" viewBox="0 0 800 400" fill="none" stroke="#ffffff" stroke-width="1.2" stroke-linecap="round" stroke-linejoin="round">
  <!-- ===== HULL - Main Shape ===== -->
  <path d="M 60 260 Q 80 300 120 320 Q 200 350 350 355 Q 500 358 620 345 Q 700 335 740 310 Q 760 295 770 270 L 750 265 Q 700 280 600 290 Q 450 300 300 298 Q 180 295 120 278 Q 90 268 70 255 Z" stroke-width="1.4"/>

  <!-- Hull bottom/keel line -->
  <path d="M 75 265 Q 150 310 300 325 Q 500 338 680 320 Q 740 310 760 280" stroke-width="0.8"/>

  <!-- Hull chine line -->
  <path d="M 85 258 Q 160 285 320 298 Q 500 308 660 295 Q 730 285 755 268" stroke-width="0.6"/>

  <!-- Strake lines on hull -->
  <path d="M 100 270 Q 200 295 380 308 Q 530 315 660 302 Q 720 295 748 275" stroke-width="0.4"/>
  <path d="M 110 278 Q 220 302 400 315 Q 550 320 650 310 Q 710 303 742 282" stroke-width="0.4"/>

  <!-- Bow detail -->
  <path d="M 60 260 Q 55 250 58 240 Q 62 232 70 230" stroke-width="1.2"/>
  <path d="M 70 230 Q 80 228 90 235 Q 95 242 85 258" stroke-width="1.0"/>

  <!-- ===== DECK / GUNWALE ===== -->
  <path d="M 70 230 Q 130 210 250 200 Q 400 192 550 200 Q 680 210 740 235 L 750 245 L 750 265" stroke-width="1.3"/>

  <!-- Inner gunwale line -->
  <path d="M 80 238 Q 140 218 260 208 Q 400 200 540 206 Q 670 216 730 240" stroke-width="0.7"/>

  <!-- Deck surface lines -->
  <path d="M 120 225 Q 250 210 420 205 Q 580 210 700 232" stroke-width="0.4"/>
  <path d="M 130 233 Q 260 218 430 213 Q 590 217 695 238" stroke-width="0.4"/>

  <!-- ===== WINDSHIELD ===== -->
  <path d="M 310 205 L 295 145 Q 300 135 320 130 L 420 125 Q 440 128 445 140 L 430 205" stroke-width="1.2"/>
  <!-- Windshield frame -->
  <path d="M 300 150 L 440 145" stroke-width="0.6"/>
  <path d="M 305 168 L 435 163" stroke-width="0.5"/>
  <path d="M 308 185 L 432 182" stroke-width="0.5"/>
  <!-- Windshield pillars -->
  <line x1="340" y1="200" x2="328" y2="133" stroke-width="0.5"/>
  <line x1="370" y1="198" x2="358" y2="130" stroke-width="0.5"/>
  <line x1="400" y1="200" x2="390" y2="128" stroke-width="0.5"/>

  <!-- ===== CONSOLE / HELM ===== -->
  <path d="M 340 210 L 340 200 L 400 198 L 400 208" stroke-width="0.9"/>
  <!-- Dashboard panel -->
  <path d="M 345 205 L 345 198 L 395 196 L 395 203" stroke-width="0.6"/>
  <!-- Gauges -->
  <circle cx="355" cy="200" r="4" stroke-width="0.5"/>
  <circle cx="370" cy="199" r="4" stroke-width="0.5"/>
  <circle cx="385" cy="199" r="4" stroke-width="0.5"/>
  <!-- Gauge details -->
  <line x1="355" y1="197" x2="355" y2="200" stroke-width="0.3"/>
  <line x1="370" y1="196" x2="370" y2="199" stroke-width="0.3"/>
  <line x1="385" y1="196" x2="385" y2="199" stroke-width="0.3"/>

  <!-- Steering wheel -->
  <circle cx="370" cy="215" r="14" stroke-width="0.8"/>
  <circle cx="370" cy="215" r="3" stroke-width="0.5"/>
  <line x1="370" y1="201" x2="370" y2="229" stroke-width="0.3"/>
  <line x1="356" y1="215" x2="384" y2="215" stroke-width="0.3"/>
  <!-- Steering column -->
  <line x1="370" y1="215" x2="370" y2="208" stroke-width="0.6"/>

  <!-- ===== SEATS ===== -->
  <!-- Captain's chair -->
  <path d="M 350 230 Q 355 222 370 220 Q 385 222 390 230 L 388 248 Q 380 252 370 253 Q 360 252 352 248 Z" stroke-width="0.7"/>
  <!-- Seat back -->
  <path d="M 352 230 Q 354 218 370 215 Q 386 218 388 230" stroke-width="0.5"/>

  <!-- Rear bench seat -->
  <path d="M 200 230 Q 210 222 250 220 Q 290 222 300 230 L 298 245 Q 280 250 250 251 Q 220 250 202 245 Z" stroke-width="0.7"/>
  <path d="M 205 230 Q 215 218 250 215 Q 285 218 295 230" stroke-width="0.5"/>

  <!-- ===== BOW SEATING AREA ===== -->
  <path d="M 90 245 Q 120 225 180 215 L 200 218 L 200 240 Q 150 245 100 255" stroke-width="0.7"/>
  <!-- Bow cushion lines -->
  <path d="M 110 240 Q 140 230 180 222" stroke-width="0.3"/>
  <path d="M 100 248 Q 130 238 175 228" stroke-width="0.3"/>

  <!-- ===== OUTBOARD MOTOR ===== -->
  <!-- Motor cowling -->
  <path d="M 720 225 Q 725 200 730 185 Q 735 170 745 165 Q 755 163 760 170 Q 765 180 762 200 Q 758 220 750 240" stroke-width="1.3"/>
  <!-- Cowling detail lines -->
  <path d="M 728 195 Q 740 175 755 172" stroke-width="0.5"/>
  <path d="M 726 210 Q 738 195 757 190" stroke-width="0.4"/>
  <!-- Motor intake vents -->
  <line x1="735" y1="180" x2="750" y2="177" stroke-width="0.4"/>
  <line x1="734" y1="186" x2="752" y2="183" stroke-width="0.4"/>
  <line x1="733" y1="192" x2="753" y2="189" stroke-width="0.4"/>

  <!-- Motor leg/midsection -->
  <path d="M 735 240 L 738 270 L 742 300 L 740 310" stroke-width="1.0"/>
  <path d="M 745 240 L 748 270 L 752 300 L 750 310" stroke-width="1.0"/>
  <!-- Anti-ventilation plate -->
  <line x1="725" y1="305" x2="765" y2="305" stroke-width="0.8"/>

  <!-- Propeller -->
  <path d="M 745 310 Q 730 320 720 335 Q 718 342 725 340 Q 735 332 745 320" stroke-width="0.8"/>
  <path d="M 745 310 Q 760 320 770 335 Q 772 342 765 340 Q 755 332 745 320" stroke-width="0.8"/>
  <path d="M 745 310 Q 745 325 745 345 Q 744 350 745 345 Q 745 330 745 320" stroke-width="0.6"/>
  <circle cx="745" cy="312" r="3" stroke-width="0.5"/>

  <!-- Tilt/trim mechanism -->
  <path d="M 730 245 L 725 235 L 720 240 L 730 255" stroke-width="0.6"/>

  <!-- Transom mount -->
  <path d="M 720 235 L 720 265 L 755 265 L 755 235" stroke-width="0.8"/>
  <line x1="720" y1="245" x2="755" y2="245" stroke-width="0.4"/>
  <line x1="720" y1="255" x2="755" y2="255" stroke-width="0.4"/>

  <!-- ===== TRANSOM ===== -->
  <path d="M 700 235 L 700 280 Q 710 290 725 288 L 755 265" stroke-width="0.9"/>

  <!-- ===== CLEATS ===== -->
  <path d="M 95 235 L 88 232 L 82 235 L 88 238 Z" stroke-width="0.6"/>
  <path d="M 690 230 L 683 227 L 677 230 L 683 233 Z" stroke-width="0.6"/>
  <path d="M 400 195 L 393 192 L 387 195 L 393 198 Z" stroke-width="0.5"/>

  <!-- ===== NAVIGATION LIGHTS ===== -->
  <!-- Bow light -->
  <circle cx="65" cy="235" r="3" stroke-width="0.6"/>
  <circle cx="65" cy="235" r="1.5" stroke-width="0.3"/>
  <!-- Stern light -->
  <circle cx="715" cy="228" r="2.5" stroke-width="0.6"/>

  <!-- ===== ROD HOLDERS ===== -->
  <path d="M 660 218 L 658 205 L 662 205 L 660 218" stroke-width="0.6"/>
  <circle cx="660" cy="203" r="2.5" stroke-width="0.4"/>
  <path d="M 680 220 L 678 207 L 682 207 L 680 220" stroke-width="0.6"/>
  <circle cx="680" cy="205" r="2.5" stroke-width="0.4"/>

  <!-- ===== TROLLING MOTOR (bow) ===== -->
  <path d="M 75 232 L 68 210 L 65 190 Q 63 180 65 175" stroke-width="0.7"/>
  <ellipse cx="64" cy="173" rx="4" ry="6" stroke-width="0.5"/>

  <!-- ===== GRAB RAILS ===== -->
  <path d="M 440 195 Q 470 188 510 190 Q 540 193 560 200" stroke-width="0.6"/>
  <circle cx="440" cy="195" r="1.5" stroke-width="0.4"/>
  <circle cx="560" cy="200" r="1.5" stroke-width="0.4"/>

  <!-- ===== LIVELL / STORAGE COMPARTMENTS ===== -->
  <!-- Bow hatch -->
  <path d="M 130 228 Q 150 220 180 218 Q 195 220 195 228" stroke-width="0.5"/>
  <line x1="162" y1="219" x2="162" y2="224" stroke-width="0.3"/>

  <!-- Floor storage -->
  <path d="M 430 220 L 500 215 L 500 230 L 430 235 Z" stroke-width="0.5"/>
  <line x1="465" y1="217" x2="465" y2="232" stroke-width="0.3"/>

  <!-- ===== WATERLINE / WAKE ===== -->
  <!-- Waterline -->
  <path d="M 20 275 Q 50 270 80 268 Q 200 258 400 262 Q 600 268 720 278 Q 750 282 780 280" stroke-width="0.6" stroke-dasharray="8 4"/>

  <!-- Wake ripples -->
  <path d="M 745 290 Q 755 295 770 292 Q 780 288 790 290" stroke-width="0.5" opacity="0.6"/>
  <path d="M 740 300 Q 755 308 775 305 Q 790 300 800 303" stroke-width="0.4" opacity="0.5"/>
  <path d="M 735 312 Q 755 322 780 318" stroke-width="0.3" opacity="0.4"/>

  <!-- Bow wake -->
  <path d="M 55 255 Q 40 262 25 258 Q 15 254 5 258" stroke-width="0.5" opacity="0.6"/>
  <path d="M 58 262 Q 42 270 28 267 Q 18 264 8 268" stroke-width="0.4" opacity="0.5"/>
  <path d="M 62 270 Q 45 278 30 275" stroke-width="0.3" opacity="0.4"/>

  <!-- Water surface suggestion -->
  <path d="M 0 285 Q 80 280 200 278 Q 400 275 600 280 Q 720 285 800 290" stroke-width="0.3" opacity="0.3"/>
  <path d="M 0 295 Q 100 290 250 288 Q 450 285 650 290 Q 750 295 800 298" stroke-width="0.3" opacity="0.2"/>

  <!-- ===== HULL REGISTRATION NUMBERS (suggestion) ===== -->
  <line x1="180" y1="265" x2="220" y2="262" stroke-width="0.3" opacity="0.3"/>
  <line x1="180" y1="272" x2="220" y2="269" stroke-width="0.3" opacity="0.3"/>

  <!-- ===== ADDITIONAL HULL DETAILS ===== -->
  <!-- Rub rail -->
  <path d="M 75 250 Q 200 232 400 228 Q 600 232 720 250" stroke-width="0.5"/>

  <!-- Scupper/drain -->
  <circle cx="710" cy="268" r="2" stroke-width="0.4"/>

  <!-- Bow eye -->
  <circle cx="62" cy="248" r="2.5" stroke-width="0.5"/>
  <circle cx="62" cy="248" r="1" stroke-width="0.3"/>

  <!-- ===== TOWER / T-TOP FRAME (light suggestion) ===== -->
  <path d="M 320 200 L 315 140 Q 318 118 330 110 L 420 108 Q 432 115 435 140 L 430 200" stroke-width="0.4" opacity="0.4"/>
  <path d="M 330 110 Q 375 102 420 108" stroke-width="0.3" opacity="0.3"/>

  <!-- ===== ANTENNA ===== -->
  <line x1="698" y1="220" x2="695" y2="160" stroke-width="0.4"/>
  <line x1="692" y1="165" x2="698" y2="165" stroke-width="0.3"/>
  <line x1="693" y1="170" x2="697" y2="170" stroke-width="0.3"/>

  <!-- ===== DEPTH FINDER / ELECTRONICS ===== -->
  <rect x="350" y="195" width="15" height="10" rx="1" stroke-width="0.4"/>
  <rect x="352" y="197" width="11" height="6" rx="0.5" stroke-width="0.3"/>
</svg>