<svg xmlns="http://www.w3.org/2000/svg" viewBox="0 0 800 500" fill="none" stroke="#ffffff" stroke-width="1.2" stroke-linecap="round" stroke-linejoin="round">
  <!-- Rear Wheel -->
  <circle cx="180" cy="360" r="90" stroke-width="1.4"/>
  <circle cx="180" cy="360" r="82"/>
  <circle cx="180" cy="360" r="12"/>
  <!-- Rear wheel spokes -->
  <line x1="180" y1="278" x2="180" y2="270"/>
  <line x1="180" y1="442" x2="180" y2="450"/>
  <line x1="98" y1="360" x2="90" y2="360"/>
  <line x1="262" y1="360" x2="270" y2="360"/>
  <line x1="116.4" y1="296.4" x2="110.7" y2="290.7"/>
  <line x1="243.6" y1="423.6" x2="249.3" y2="429.3"/>
  <line x1="243.6" y1="296.4" x2="249.3" y2="290.7"/>
  <line x1="116.4" y1="423.6" x2="110.7" y2="429.3"/>
  <!-- Rear wheel inner spokes (thin) -->
  <line x1="180" y1="278" x2="180" y2="348" stroke-width="0.6"/>
  <line x1="180" y1="372" x2="180" y2="442" stroke-width="0.6"/>
  <line x1="98" y1="360" x2="168" y2="360" stroke-width="0.6"/>
  <line x1="192" y1="360" x2="262" y2="360" stroke-width="0.6"/>
  <line x1="116.4" y1="296.4" x2="171.5" y2="351.5" stroke-width="0.6"/>
  <line x1="188.5" y1="368.5" x2="243.6" y2="423.6" stroke-width="0.6"/>
  <line x1="243.6" y1="296.4" x2="188.5" y2="351.5" stroke-width="0.6"/>
  <line x1="171.5" y1="368.5" x2="116.4" y2="423.6" stroke-width="0.6"/>
  <!-- Additional rear spokes -->
  <line x1="143" y1="282" x2="172" y2="349" stroke-width="0.5"/>
  <line x1="217" y1="438" x2="188" y2="371" stroke-width="0.5"/>
  <line x1="217" y1="282" x2="188" y2="349" stroke-width="0.5"/>
  <line x1="143" y1="438" x2="172" y2="371" stroke-width="0.5"/>
  <line x1="100" y1="323" x2="169" y2="353" stroke-width="0.5"/>
  <line x1="260" y1="397" x2="191" y2="367" stroke-width="0.5"/>
  <line x1="100" y1="397" x2="169" y2="367" stroke-width="0.5"/>
  <line x1="260" y1="323" x2="191" y2="353" stroke-width="0.5"/>
  <!-- Rear tire tread -->
  <circle cx="180" cy="360" r="86" stroke-width="0.4" stroke-dasharray="4 3"/>

  <!-- Front Wheel -->
  <circle cx="620" cy="360" r="85" stroke-width="1.4"/>
  <circle cx="620" cy="360" r="77"/>
  <circle cx="620" cy="360" r="11"/>
  <!-- Front wheel spokes -->
  <line x1="620" y1="283" x2="620" y2="275"/>
  <line x1="620" y1="437" x2="620" y2="445"/>
  <line x1="543" y1="360" x2="535" y2="360"/>
  <line x1="697" y1="360" x2="705" y2="360"/>
  <line x1="559.9" y1="299.9" x2="554.2" y2="294.2"/>
  <line x1="680.1" y1="420.1" x2="685.8" y2="425.8"/>
  <line x1="680.1" y1="299.9" x2="685.8" y2="294.2"/>
  <line x1="559.9" y1="420.1" x2="554.2" y2="425.8"/>
  <!-- Front wheel inner spokes -->
  <line x1="620" y1="283" x2="620" y2="349" stroke-width="0.6"/>
  <line x1="620" y1="371" x2="620" y2="437" stroke-width="0.6"/>
  <line x1="543" y1="360" x2="609" y2="360" stroke-width="0.6"/>
  <line x1="631" y1="360" x2="697" y2="360" stroke-width="0.6"/>
  <line x1="559.9" y1="299.9" x2="612.2" y2="352.2" stroke-width="0.6"/>
  <line x1="627.8" y1="367.8" x2="680.1" y2="420.1" stroke-width="0.6"/>
  <line x1="680.1" y1="299.9" x2="627.8" y2="352.2" stroke-width="0.6"/>
  <line x1="612.2" y1="367.8" x2="559.9" y2="420.1" stroke-width="0.6"/>
  <!-- Additional front spokes -->
  <line x1="585" y1="287" x2="613" y2="349" stroke-width="0.5"/>
  <line x1="655" y1="433" x2="627" y2="371" stroke-width="0.5"/>
  <line x1="655" y1="287" x2="627" y2="349" stroke-width="0.5"/>
  <line x1="585" y1="433" x2="613" y2="371" stroke-width="0.5"/>
  <line x1="545" y1="325" x2="610" y2="354" stroke-width="0.5"/>
  <line x1="695" y1="395" x2="630" y2="366" stroke-width="0.5"/>
  <line x1="545" y1="395" x2="610" y2="366" stroke-width="0.5"/>
  <line x1="695" y1="325" x2="630" y2="354" stroke-width="0.5"/>
  <!-- Front tire tread -->
  <circle cx="620" cy="360" r="81" stroke-width="0.4" stroke-dasharray="4 3"/>

  <!-- Rear Swingarm -->
  <line x1="180" y1="360" x2="310" y2="310"/>
  <line x1="180" y1="360" x2="305" y2="320"/>
  <!-- Rear shock absorber -->
  <line x1="220" y1="340" x2="280" y2="260"/>
  <line x1="225" y1="338" x2="275" y2="262" stroke-dasharray="3 2" stroke-width="0.7"/>
  <!-- Chain/sprocket area -->
  <circle cx="180" cy="360" r="22" stroke-width="0.6"/>
  <circle cx="310" cy="315" r="14" stroke-width="0.6"/>
  <line x1="180" y1="338" x2="310" y2="301" stroke-width="0.5"/>
  <line x1="180" y1="382" x2="310" y2="329" stroke-width="0.5"/>

  <!-- Frame - Main Structure -->
  <!-- Backbone/top tube -->
  <path d="M 310 310 L 340 240 L 420 190 L 520 170 L 570 180" stroke-width="1.4"/>
  <!-- Downtube -->
  <path d="M 340 240 L 330 290 L 310 340 L 310 310" stroke-width="1.2"/>
  <!-- Subframe -->
  <path d="M 420 190 L 280 210 L 230 280" stroke-width="0.8"/>
  <path d="M 340 200 L 280 250" stroke-width="0.6"/>

  <!-- Engine Block -->
  <path d="M 310 290 L 370 280 L 410 290 L 420 340 L 400 370 L 340 380 L 310 360 L 310 290" stroke-width="1.2"/>
  <!-- Engine details - cylinders -->
  <path d="M 340 290 L 360 230 L 395 230 L 410 290" stroke-width="0.9"/>
  <line x1="365" y1="230" x2="365" y2="290" stroke-width="0.5"/>
  <line x1="380" y1="230" x2="380" y2="290" stroke-width="0.5"/>
  <!-- Engine fins -->
  <line x1="345" y1="245" x2="390" y2="245" stroke-width="0.4"/>
  <line x1="343" y1="255" x2="393" y2="255" stroke-width="0.4"/>
  <line x1="341" y1="265" x2="396" y2="265" stroke-width="0.4"/>
  <line x1="339" y1="275" x2="399" y2="275" stroke-width="0.4"/>
  <!-- Engine case details -->
  <line x1="320" y1="320" x2="400" y2="310" stroke-width="0.4"/>
  <line x1="320" y1="340" x2="400" y2="330" stroke-width="0.4"/>
  <line x1="325" y1="355" x2="390" y2="350" stroke-width="0.4"/>
  <circle cx="350" cy="350" r="8" stroke-width="0.5"/>
  <circle cx="385" cy="345" r="6" stroke-width="0.5"/>

  <!-- Exhaust System -->
  <path d="M 400 370 Q 420 390 430 400 Q 440 410 420 420 Q 350 440 280 445 Q 230 448 180 445" stroke-width="1.0"/>
  <path d="M 180 445 L 130 442 Q 110 440 105 430 L 100 420" stroke-width="1.2"/>
  <!-- Exhaust heat shield lines -->
  <path d="M 400 375 Q 415 392 425 402" stroke-width="0.4"/>
  <path d="M 350 438 Q 300 442 250 444" stroke-width="0.4"/>

  <!-- Fuel Tank -->
  <path d="M 370 185 Q 400 160 450 152 Q 500 148 530 155 Q 555 162 560 178 L 520 195 Q 480 200 440 198 Q 400 196 370 190 Z" stroke-width="1.2"/>
  <!-- Tank details -->
  <path d="M 420 165 Q 460 158 500 160" stroke-width="0.5"/>
  <path d="M 410 178 Q 460 172 510 175" stroke-width="0.5"/>
  <!-- Tank cap -->
  <ellipse cx="470" cy="155" rx="12" ry="5" stroke-width="0.7"/>

  <!-- Seat -->
  <path d="M 350 192 Q 330 185 300 188 Q 270 192 240 210 L 230 220 Q 235 215 260 205 Q 300 195 340 192 Z" stroke-width="1.0"/>
  <!-- Seat padding line -->
  <path d="M 340 194 Q 310 197 280 206 Q 255 214 240 218" stroke-width="0.4"/>

  <!-- Front Fork -->
  <line x1="570" y1="180" x2="620" y2="275" stroke-width="1.3"/>
  <line x1="560" y1="185" x2="610" y2="280" stroke-width="1.3"/>
  <!-- Fork stanchions (inner tubes) -->
  <line x1="618" y1="290" x2="620" y2="360" stroke-width="1.0"/>
  <line x1="608" y1="295" x2="610" y2="360" stroke-width="1.0"/>
  <!-- Fork lower detail -->
  <line x1="620" y1="310" x2="620" y2="350" stroke-width="1.5" opacity="0.4"/>
  <line x1="610" y1="315" x2="610" y2="350" stroke-width="1.5" opacity="0.4"/>
  <!-- Triple clamp -->
  <path d="M 555 185 L 575 178 L 572 188 L 558 192 Z" stroke-width="0.8"/>

  <!-- Front Fender -->
  <path d="M 580 310 Q 590 280 620 270 Q 650 280 660 310" stroke-width="0.8"/>

  <!-- Handlebars -->
  <path d="M 540 160 Q 555 150 570 148 Q 585 150 590 158" stroke-width="1.2"/>
  <!-- Handlebar grips -->
  <line x1="535" y1="162" x2="540" y2="158" stroke-width="2" opacity="0.5"/>
  <line x1="590" y1="156" x2="596" y2="152" stroke-width="2" opacity="0.5"/>
  <!-- Mirrors -->
  <path d="M 536 158 Q 520 145 515 138 Q 512 132 518 130 Q 524 128 530 132" stroke-width="0.7"/>
  <path d="M 596 150 Q 610 140 615 134 Q 618 128 612 127 Q 606 126 602 130" stroke-width="0.7"/>
  <!-- Headlight -->
  <ellipse cx="600" cy="210" rx="22" ry="18" stroke-width="1.0"/>
  <ellipse cx="600" cy="210" rx="15" ry="12" stroke-width="0.5"/>
  <ellipse cx="600" cy="210" rx="8" ry="6" stroke-width="0.3"/>

  <!-- Front Brake Disc -->
  <circle cx="620" cy="360" r="40" stroke-width="0.6"/>
  <circle cx="620" cy="360" r="35" stroke-width="0.3" stroke-dasharray="2 4"/>
  <!-- Brake caliper -->
  <path d="M 655 340 L 665 335 L 668 350 L 658 355 Z" stroke-width="0.7"/>

  <!-- Rear Brake Disc -->
  <circle cx="180" cy="360" r="35" stroke-width="0.6"/>
  <circle cx="180" cy="360" r="30" stroke-width="0.3" stroke-dasharray="2 4"/>

  <!-- Tail/Rear Section -->
  <path d="M 240 210 L 180 230 L 160 240" stroke-width="0.8"/>
  <!-- Tail light -->
  <path d="M 165 235 Q 155 230 150 235 Q 148 240 155 243 L 168 238" stroke-width="0.7"/>

  <!-- Rear Fender -->
  <path d="M 220 310 Q 200 290 180 275 Q 160 290 145 310" stroke-width="0.7"/>

  <!-- Footpegs -->
  <line x1="330" y1="380" x2="340" y2="395" stroke-width="0.8"/>
  <line x1="340" y1="395" x2="355" y2="393" stroke-width="1.0"/>
  <line x1="430" y1="365" x2="440" y2="378" stroke-width="0.8"/>
  <line x1="440" y1="378" x2="455" y2="376" stroke-width="1.0"/>

  <!-- Windscreen -->
  <path d="M 565 168 Q 575 140 585 125 Q 590 118 595 120" stroke-width="0.8"/>
  <path d="M 568 170 Q 578 145 586 130" stroke-width="0.4"/>

  <!-- Instrument cluster -->
  <path d="M 548 162 Q 555 155 568 155 Q 572 158 570 165" stroke-width="0.6"/>
  <circle cx="560" cy="160" r="4" stroke-width="0.4"/>

  <!-- Frame cross-bracing detail -->
  <line x1="340" y1="240" x2="370" y2="280" stroke-width="0.5"/>
  <line x1="360" y1="230" x2="380" y2="270" stroke-width="0.5"/>

  <!-- Radiator -->
  <path d="M 440 230 L 455 225 L 460 280 L 445 285 Z" stroke-width="0.7"/>
  <line x1="443" y1="240" x2="458" y2="235" stroke-width="0.3"/>
  <line x1="444" y1="250" x2="459" y2="245" stroke-width="0.3"/>
  <line x1="445" y1="260" x2="459" y2="255" stroke-width="0.3"/>
  <line x1="446" y1="270" x2="460" y2="265" stroke-width="0.3"/>

  <!-- Kickstand hint -->
  <line x1="340" y1="375" x2="360" y2="450" stroke-width="0.5"/>
</svg>