<svg xmlns="http://www.w3.org/2000/svg" viewBox="0 0 800 500" fill="none" stroke="#ffffff" stroke-width="1.2" stroke-linecap="round" stroke-linejoin="round">
  <!-- ===== REAR LEFT WHEEL (back, partially hidden) ===== -->
  <circle cx="160" cy="380" r="72" stroke-width="1.3"/>
  <circle cx="160" cy="380" r="64"/>
  <circle cx="160" cy="380" r="10"/>
  <circle cx="160" cy="380" r="68" stroke-width="0.4" stroke-dasharray="6 4"/>
  <!-- Spokes -->
  <line x1="160" y1="316" x2="160" y2="370" stroke-width="0.5"/>
  <line x1="160" y1="390" x2="160" y2="444" stroke-width="0.5"/>
  <line x1="96" y1="380" x2="150" y2="380" stroke-width="0.5"/>
  <line x1="170" y1="380" x2="224" y2="380" stroke-width="0.5"/>
  <line x1="114.7" y1="334.7" x2="153" y2="373" stroke-width="0.5"/>
  <line x1="167" y1="387" x2="205.3" y2="425.3" stroke-width="0.5"/>
  <line x1="205.3" y1="334.7" x2="167" y2="373" stroke-width="0.5"/>
  <line x1="153" y1="387" x2="114.7" y2="425.3" stroke-width="0.5"/>
  <!-- Tire lugs -->
  <line x1="100" y1="345" x2="93" y2="340" stroke-width="1.5" opacity="0.3"/>
  <line x1="95" y1="365" x2="87" y2="362" stroke-width="1.5" opacity="0.3"/>
  <line x1="95" y1="395" x2="87" y2="398" stroke-width="1.5" opacity="0.3"/>
  <line x1="100" y1="415" x2="93" y2="420" stroke-width="1.5" opacity="0.3"/>
  <line x1="120" y1="435" x2="117" y2="443" stroke-width="1.5" opacity="0.3"/>
  <line x1="145" y1="445" x2="145" y2="453" stroke-width="1.5" opacity="0.3"/>
  <line x1="175" y1="445" x2="175" y2="453" stroke-width="1.5" opacity="0.3"/>
  <line x1="200" y1="435" x2="203" y2="443" stroke-width="1.5" opacity="0.3"/>
  <line x1="220" y1="415" x2="227" y2="420" stroke-width="1.5" opacity="0.3"/>
  <line x1="225" y1="395" x2="233" y2="398" stroke-width="1.5" opacity="0.3"/>
  <line x1="225" y1="365" x2="233" y2="362" stroke-width="1.5" opacity="0.3"/>
  <line x1="220" y1="345" x2="227" y2="340" stroke-width="1.5" opacity="0.3"/>

  <!-- ===== REAR RIGHT WHEEL ===== -->
  <circle cx="240" cy="395" r="72" stroke-width="1.3"/>
  <circle cx="240" cy="395" r="64"/>
  <circle cx="240" cy="395" r="10"/>
  <circle cx="240" cy="395" r="68" stroke-width="0.4" stroke-dasharray="6 4"/>
  <line x1="240" y1="331" x2="240" y2="385" stroke-width="0.5"/>
  <line x1="240" y1="405" x2="240" y2="459" stroke-width="0.5"/>
  <line x1="176" y1="395" x2="230" y2="395" stroke-width="0.5"/>
  <line x1="250" y1="395" x2="304" y2="395" stroke-width="0.5"/>
  <line x1="194.7" y1="349.7" x2="233" y2="388" stroke-width="0.5"/>
  <line x1="247" y1="402" x2="285.3" y2="440.3" stroke-width="0.5"/>
  <line x1="285.3" y1="349.7" x2="247" y2="388" stroke-width="0.5"/>
  <line x1="233" y1="402" x2="194.7" y2="440.3" stroke-width="0.5"/>
  <line x1="180" y1="360" x2="173" y2="355" stroke-width="1.5" opacity="0.3"/>
  <line x1="175" y1="380" x2="167" y2="377" stroke-width="1.5" opacity="0.3"/>
  <line x1="175" y1="410" x2="167" y2="413" stroke-width="1.5" opacity="0.3"/>
  <line x1="180" y1="430" x2="173" y2="435" stroke-width="1.5" opacity="0.3"/>
  <line x1="200" y1="450" x2="197" y2="458" stroke-width="1.5" opacity="0.3"/>
  <line x1="225" y1="460" x2="225" y2="468" stroke-width="1.5" opacity="0.3"/>
  <line x1="255" y1="460" x2="255" y2="468" stroke-width="1.5" opacity="0.3"/>
  <line x1="280" y1="450" x2="283" y2="458" stroke-width="1.5" opacity="0.3"/>
  <line x1="300" y1="430" x2="307" y2="435" stroke-width="1.5" opacity="0.3"/>
  <line x1="305" y1="410" x2="313" y2="413" stroke-width="1.5" opacity="0.3"/>
  <line x1="305" y1="380" x2="313" y2="377" stroke-width="1.5" opacity="0.3"/>
  <line x1="300" y1="360" x2="307" y2="355" stroke-width="1.5" opacity="0.3"/>

  <!-- ===== FRONT LEFT WHEEL ===== -->
  <circle cx="560" cy="380" r="68" stroke-width="1.3"/>
  <circle cx="560" cy="380" r="60"/>
  <circle cx="560" cy="380" r="9"/>
  <circle cx="560" cy="380" r="64" stroke-width="0.4" stroke-dasharray="6 4"/>
  <line x1="560" y1="320" x2="560" y2="371" stroke-width="0.5"/>
  <line x1="560" y1="389" x2="560" y2="440" stroke-width="0.5"/>
  <line x1="500" y1="380" x2="551" y2="380" stroke-width="0.5"/>
  <line x1="569" y1="380" x2="620" y2="380" stroke-width="0.5"/>
  <line x1="517.6" y1="337.6" x2="553.6" y2="373.6" stroke-width="0.5"/>
  <line x1="566.4" y1="386.4" x2="602.4" y2="422.4" stroke-width="0.5"/>
  <line x1="602.4" y1="337.6" x2="566.4" y2="373.6" stroke-width="0.5"/>
  <line x1="553.6" y1="386.4" x2="517.6" y2="422.4" stroke-width="0.5"/>

  <!-- ===== FRONT RIGHT WHEEL ===== -->
  <circle cx="640" cy="395" r="68" stroke-width="1.3"/>
  <circle cx="640" cy="395" r="60"/>
  <circle cx="640" cy="395" r="9"/>
  <circle cx="640" cy="395" r="64" stroke-width="0.4" stroke-dasharray="6 4"/>
  <line x1="640" y1="335" x2="640" y2="386" stroke-width="0.5"/>
  <line x1="640" y1="404" x2="640" y2="455" stroke-width="0.5"/>
  <line x1="580" y1="395" x2="631" y2="395" stroke-width="0.5"/>
  <line x1="649" y1="395" x2="700" y2="395" stroke-width="0.5"/>
  <line x1="597.6" y1="352.6" x2="633.6" y2="388.6" stroke-width="0.5"/>
  <line x1="646.4" y1="401.4" x2="682.4" y2="437.4" stroke-width="0.5"/>
  <line x1="682.4" y1="352.6" x2="646.4" y2="388.6" stroke-width="0.5"/>
  <line x1="633.6" y1="401.4" x2="597.6" y2="437.4" stroke-width="0.5"/>
  <!-- Front tire lugs -->
  <line x1="580" y1="360" x2="573" y2="355" stroke-width="1.5" opacity="0.3"/>
  <line x1="575" y1="380" x2="567" y2="377" stroke-width="1.5" opacity="0.3"/>
  <line x1="575" y1="410" x2="567" y2="413" stroke-width="1.5" opacity="0.3"/>
  <line x1="580" y1="430" x2="573" y2="435" stroke-width="1.5" opacity="0.3"/>
  <line x1="600" y1="450" x2="597" y2="458" stroke-width="1.5" opacity="0.3"/>
  <line x1="640" y1="458" x2="640" y2="465" stroke-width="1.5" opacity="0.3"/>
  <line x1="680" y1="450" x2="683" y2="458" stroke-width="1.5" opacity="0.3"/>
  <line x1="700" y1="430" x2="707" y2="435" stroke-width="1.5" opacity="0.3"/>
  <line x1="705" y1="410" x2="713" y2="413" stroke-width="1.5" opacity="0.3"/>
  <line x1="705" y1="380" x2="713" y2="377" stroke-width="1.5" opacity="0.3"/>
  <line x1="700" y1="360" x2="707" y2="355" stroke-width="1.5" opacity="0.3"/>

  <!-- ===== AXLES ===== -->
  <line x1="160" y1="380" x2="240" y2="395" stroke-width="1.0"/>
  <line x1="560" y1="380" x2="640" y2="395" stroke-width="1.0"/>

  <!-- ===== FRAME / CHASSIS ===== -->
  <path d="M 200 370 L 280 300 L 400 240 L 520 260 L 600 350" stroke-width="1.3"/>
  <path d="M 220 385 L 300 320 L 410 260 L 530 275 L 610 360" stroke-width="1.0"/>
  <line x1="280" y1="300" x2="300" y2="320" stroke-width="0.7"/>
  <line x1="400" y1="240" x2="410" y2="260" stroke-width="0.7"/>
  <line x1="520" y1="260" x2="530" y2="275" stroke-width="0.7"/>

  <!-- ===== ROLL CAGE ===== -->
  <path d="M 430 250 L 440 150 L 450 130" stroke-width="1.2"/>
  <path d="M 445 260 L 455 155 L 462 135" stroke-width="1.0"/>
  <path d="M 300 290 L 285 155 L 290 130" stroke-width="1.2"/>
  <path d="M 315 305 L 300 160 L 303 135" stroke-width="1.0"/>
  <!-- Top rail -->
  <path d="M 290 130 L 340 115 L 400 112 L 450 130" stroke-width="1.3"/>
  <path d="M 303 135 L 350 122 L 410 119 L 462 135" stroke-width="1.0"/>
  <line x1="290" y1="130" x2="303" y2="135" stroke-width="0.8"/>
  <line x1="450" y1="130" x2="462" y2="135" stroke-width="0.8"/>
  <!-- Mid rail -->
  <path d="M 295 180 L 350 170 L 420 170 L 445 180" stroke-width="0.8"/>
  <!-- Diagonal bracing -->
  <line x1="300" y1="290" x2="440" y2="150" stroke-width="0.5"/>
  <line x1="430" y1="250" x2="290" y2="155" stroke-width="0.5"/>
  <!-- Roof detail -->
  <path d="M 295 115 Q 360 105 430 115" stroke-width="0.4"/>

  <!-- ===== BODY PANELS ===== -->
  <!-- Hood/front -->
  <path d="M 470 270 Q 520 240 560 250 Q 590 260 620 310 L 610 320 Q 580 280 550 268 Q 510 258 470 275 Z" stroke-width="1.0"/>
  <path d="M 490 262 Q 530 250 565 260" stroke-width="0.4"/>
  <path d="M 485 272 Q 535 258 575 270" stroke-width="0.4"/>
  <!-- Rear body -->
  <path d="M 260 290 Q 230 270 210 280 Q 190 290 185 330 L 195 335 Q 200 300 215 290 Q 235 280 260 295 Z" stroke-width="1.0"/>
  <!-- Side panels -->
  <path d="M 320 310 L 380 280 L 460 270 L 500 280 L 500 310 L 450 330 L 370 335 L 320 325 Z" stroke-width="0.9"/>
  <line x1="350" y1="295" x2="480" y2="280" stroke-width="0.4"/>
  <line x1="345" y1="310" x2="485" y2="295" stroke-width="0.4"/>
  <line x1="340" y1="325" x2="470" y2="315" stroke-width="0.4"/>

  <!-- ===== SUSPENSION ===== -->
  <!-- Front A-arms -->
  <path d="M 520 265 L 570 340 L 600 360" stroke-width="0.8"/>
  <path d="M 540 270 L 580 330" stroke-width="0.7"/>
  <line x1="555" y1="280" x2="575" y2="340" stroke-width="0.9"/>
  <line x1="557" y1="282" x2="573" y2="335" stroke-width="0.5" stroke-dasharray="2 2"/>
  <!-- Rear A-arms -->
  <path d="M 280 305 L 220 355" stroke-width="0.8"/>
  <path d="M 300 310 L 240 370" stroke-width="0.8"/>
  <path d="M 260 315 L 230 350" stroke-width="0.7"/>
  <line x1="270" y1="300" x2="235" y2="355" stroke-width="0.9"/>
  <line x1="272" y1="302" x2="238" y2="352" stroke-width="0.5" stroke-dasharray="2 2"/>

  <!-- ===== STEERING WHEEL ===== -->
  <circle cx="460" cy="175" r="20" stroke-width="0.9"/>
  <circle cx="460" cy="175" r="4" stroke-width="0.5"/>
  <line x1="460" y1="155" x2="460" y2="195" stroke-width="0.4"/>
  <line x1="440" y1="175" x2="480" y2="175" stroke-width="0.4"/>
  <line x1="460" y1="195" x2="465" y2="250" stroke-width="0.7"/>

  <!-- ===== SEATS ===== -->
  <path d="M 340 205 Q 350 195 380 193 Q 400 195 405 205 L 400 240 Q 390 248 370 250 Q 350 248 345 240 Z" stroke-width="0.8"/>
  <path d="M 315 170 Q 320 155 345 150 Q 370 148 385 150 Q 400 155 400 170 L 405 205 L 340 205 L 315 170 Z" stroke-width="0.7"/>
  <line x1="350" y1="160" x2="350" y2="200" stroke-width="0.3"/>
  <line x1="370" y1="158" x2="370" y2="198" stroke-width="0.3"/>

  <!-- ===== HEADLIGHTS ===== -->
  <ellipse cx="590" cy="275" rx="14" ry="10" stroke-width="0.8"/>
  <ellipse cx="590" cy="275" rx="8" ry="6" stroke-width="0.4"/>
  <ellipse cx="610" cy="285" rx="12" ry="9" stroke-width="0.8"/>
  <ellipse cx="610" cy="285" rx="7" ry="5" stroke-width="0.4"/>

  <!-- ===== TAILLIGHTS ===== -->
  <rect x="188" y="295" width="10" height="8" rx="2" stroke-width="0.7"/>
  <rect x="190" y="297" width="6" height="4" rx="1" stroke-width="0.4"/>

  <!-- ===== BUMPERS ===== -->
  <path d="M 600 320 Q 630 305 660 310 Q 680 320 690 340 Q 685 350 670 355" stroke-width="1.0"/>
  <path d="M 615 315 Q 640 308 665 315" stroke-width="0.5"/>
  <path d="M 175 340 Q 160 335 150 345 Q 145 355 150 365" stroke-width="0.9"/>

  <!-- ===== SKID PLATE ===== -->
  <path d="M 250 380 L 350 365 L 480 360 L 560 370" stroke-width="0.6" stroke-dasharray="4 3"/>
  <path d="M 270 390 L 370 375 L 490 370 L 570 380" stroke-width="0.6" stroke-dasharray="4 3"/>

  <!-- ===== WINCH ===== -->
  <rect x="620" y="305" width="20" height="12" rx="3" stroke-width="0.6"/>
  <circle cx="630" cy="311" r="3" stroke-width="0.4"/>

  <!-- ===== EXHAUST ===== -->
  <path d="M 210 340 Q 190 360 170 370" stroke-width="0.8"/>
  <path d="M 170 370 L 155 378 Q 148 382 145 378 L 140 372" stroke-width="0.9"/>

  <!-- ===== DASHBOARD ===== -->
  <path d="M 430 200 L 490 195 L 495 215 L 435 220 Z" stroke-width="0.6"/>
  <circle cx="455" cy="208" r="5" stroke-width="0.4"/>
  <circle cx="475" cy="206" r="5" stroke-width="0.4"/>

  <!-- ===== FENDER FLARES ===== -->
  <path d="M 600 345 Q 620 325 650 325 Q 680 330 695 350 Q 700 365 695 385" stroke-width="0.8"/>
  <path d="M 205 365 Q 220 340 250 335 Q 280 340 300 365" stroke-width="0.8"/>
</svg>