<svg viewBox="0 0 512 512" xmlns="http://www.w3.org/2000/svg" fill-rule="evenodd" clip-rule="evenodd" stroke-linejoin="round" stroke-miterlimit="2"><g transform="matrix(.9576 0 0 .9576 256 256)"><clipPath id="prefix__a"><path d="M261.068-146.198v292.396c0 63.398-51.472 114.87-114.87 114.87h-292.396c-63.398 0-114.87-51.472-114.87-114.87v-292.396c0-63.398 51.472-114.87 114.87-114.87h292.396c63.398 0 114.87 51.472 114.87 114.87z"/></clipPath><g clip-path="url(#prefix__a)"><g transform="translate(-267.333 -266.667)"><clipPath id="prefix__b"><path d="M0 0h534.667v533.333H0z"/></clipPath><g clip-path="url(#prefix__b)"><path fill="#ff4f00" d="M.701 0h533.332v533.332H.701z"/><path d="M534.033 266.666c0 147.177-119.489 266.666-266.666 266.666S.701 413.843.701 266.666 120.191 0 267.367 0c147.177 0 266.666 119.489 266.666 266.666z" fill="#ff4f00"/><path d="M75.733 293.815l-.076-.241 48.084-44.02v-21.21H46.599v21.21h46.077l.076.203-47.613 44.058v21.21h79.377v-21.21H75.733zM171.862 226.33c-8.898 0-16.15 1.341-21.756 4.025a28.552 28.552 0 00-12.624 11.063 40.26 40.26 0 00-5.296 16.003l23.407 3.289c.847-4.987 2.54-8.521 5.08-10.605a15.512 15.512 0 0110.059-3.111c4.75 0 8.196 1.27 10.338 3.81 2.122 2.54 3.2 6.058 3.2 10.694v2.31h-22.505c-11.456 0-19.685 2.54-24.69 7.622-5.003 5.08-7.5 11.785-7.493 20.117 0 8.535 2.498 14.886 7.494 19.05 4.996 4.166 11.277 6.237 18.848 6.212 9.389 0 16.612-3.231 21.666-9.691a36.015 36.015 0 006.262-13.348h.85l3.227 21.21h21.21v-53.711c0-11.1-2.926-19.699-8.777-25.795-5.85-6.096-15.35-9.144-28.5-9.144zm7.418 66.208c-3.367 2.807-7.774 4.204-13.26 4.204-4.522 0-7.663-.792-9.424-2.376a7.754 7.754 0 01-2.654-6.032 7.919 7.919 0 012.198-5.855 8.156 8.156 0 016.032-2.197h22.137v1.46a13.482 13.482 0 01-5.03 10.796zM312.29 228.343h25.058v86.695H312.29zM485.393 228.343c-7.077 0-12.657 2.5-16.738 7.494-2.93 3.59-5.156 8.894-6.68 15.914h-.737l-3.276-23.408H436.56v86.682h25.059v-44.452c0-5.606 1.312-9.902 3.937-12.891 2.624-2.99 7.468-4.483 14.53-4.483h9.511v-24.856h-4.204zM411.61 231.171c-5.851-3.48-13.23-5.214-22.136-5.206-14.022 0-24.995 3.992-32.92 11.976-7.926 7.985-11.888 18.992-11.888 33.021a52.65 52.65 0 005.397 24.5 38.912 38.912 0 0015.368 16.193c6.639 3.835 14.533 5.758 23.687 5.766 7.917 0 14.529-1.22 19.838-3.658a31.893 31.893 0 0012.624-9.97 43.465 43.465 0 006.859-14.174l-21.592-6.045a19.969 19.969 0 01-5.08 8.79c-2.439 2.437-6.524 3.657-12.256 3.657-6.816 0-11.896-1.952-15.24-5.855-2.427-2.82-3.95-6.845-4.623-12.065h59.12c.242-2.439.368-4.484.368-6.135v-5.397a48.117 48.117 0 00-4.381-21.034 32.918 32.918 0 00-13.145-14.364zm-22.86 15.458c10.16 0 15.921 4.998 17.285 14.998h-35.943a20.645 20.645 0 014.026-9.157c3.294-3.903 8.17-5.85 14.632-5.841zM325.118 193.408a14.06 14.06 0 00-10.25 3.937 13.581 13.581 0 00-4.027 10.161 13.8 13.8 0 00.949 5.54 13.782 13.782 0 0013.328 8.724 13.557 13.557 0 0010.161-4.027 13.98 13.98 0 003.925-10.237 13.49 13.49 0 00-3.929-10.15 13.465 13.465 0 00-4.657-3.036 13.527 13.527 0 00-5.5-.912zM273.35 225.965c-8.535 0-15.392 2.68-20.575 8.038-3.834 3.972-6.65 9.9-8.445 17.782h-.8l-3.277-23.407h-21.4V339.94h25.058v-45.95h.914a46.886 46.886 0 003.201 8.89 25.239 25.239 0 009.97 11.15 29.293 29.293 0 0014.809 3.569c10.49 0 18.478-4.085 23.965-12.255 5.487-8.17 8.23-19.572 8.23-34.202 0-14.132-2.654-25.195-7.963-33.187-5.308-7.993-13.204-11.99-23.687-11.99zm2.541 62.816c-2.921 4.233-7.493 6.35-13.717 6.35a16.17 16.17 0 01-13.437-6.134c-3.243-4.072-4.86-9.648-4.85-16.727v-1.65c0-7.189 1.615-12.693 4.85-16.511 3.234-3.819 7.713-5.707 13.437-5.664 6.333 0 10.935 2.01 13.805 6.032 2.871 4.022 4.306 9.632 4.306 16.828.017 7.442-1.439 13.268-4.368 17.476h-.026z" fill="#fffdf9" fill-rule="nonzero"/></g></g></g></g></svg>