<svg xmlns="http://www.w3.org/2000/svg" id="Layer_2" data-name="Layer 2" viewBox="0 0 180.52 62.44"><defs><style>.cls-2{fill:#005e85}.cls-4{fill:#fff}.cls-2{fill-rule:evenodd}.cls-5{fill:#016087}</style></defs><g id="Layer_2-2" data-name="Layer 2"><g><g><path d="M5.85 61.85c-2.91 0-5.27-2.34-5.27-5.21V5.8C.58 2.92 2.95.58 5.85.58h51.57v61.26H5.85Z" class="cls-4"/><path fill="#005e85" d="M56.84 1.17v60.1H5.85c-2.58 0-4.69-2.08-4.69-4.63V5.8c.01-2.56 2.11-4.63 4.69-4.63h50.99M58.01 0H5.85C2.61 0 0 2.59 0 5.8v50.84c0 3.2 2.62 5.8 5.85 5.8H58V0Z"/></g><path fill="#005e85" stroke="#005e85" stroke-miterlimit="10" stroke-width="1.14px" d="M56.91.57h104.18c3.14 0 5.69 2.55 5.69 5.69v49.92c0 3.14-2.55 5.69-5.69 5.69H56.91"/><g><path d="m24.99 20.6-2.66 3.67c-1.33 1.84-.92 5.1.9 6.41l4.94 3.56c.85.61.91 1.22.51 1.86l.72.53 2.5-3.46c1.54-2.14 1.41-5.05-.88-6.72l-4.98-3.63c-.6-.43-.66-1.04-.33-1.72l-.72-.51ZM29.26 4.39l-4.15 5.73c-1.94 2.69-1.24 7.28 1.42 9.23l6.81 5c1.38 1.01 1.56 3.6.56 4.92l.58.43 4.7-6.61c2.11-2.97 1.99-7.36-1.33-9.76l-7.29-5.29c-1.02-.74-1.53-2-.68-3.2l-.63-.44ZM18.34 40.34h5.49l.98 3.33h8.98l.98-3.33h5.49l-.72-2.45H19.06l-.72 2.45Z" class="cls-2"/><g><path d="M20.91 51.48c.97-.56 1.56-1.4 1.56-2.53 0-2.28-1.86-3.2-3.9-3.2h-5.68v12.08h5.63c2.4 0 4.95-1.05 4.54-3.82-.23-1.58-.87-1.96-2.15-2.53Zm-5.45-3.42h2.95c1.84 0 1.91 2.58.12 2.58h-3.07v-2.58Zm3.3 7.48h-3.29v-2.76h3.29c2.42 0 2.27 2.76 0 2.76ZM32.19 51.48c.97-.56 1.56-1.4 1.56-2.53 0-2.28-1.86-3.2-3.9-3.2h-5.68v12.08h5.63c2.4 0 4.95-1.05 4.54-3.82-.23-1.58-.87-1.96-2.15-2.53Zm-5.45-3.42h2.95c1.84 0 1.91 2.58.12 2.58h-3.07v-2.58Zm3.29 7.48h-3.29v-2.76h3.29c2.42 0 2.27 2.76 0 2.76ZM45.62 54.01c-.23-1.58-.87-1.96-2.15-2.53.97-.56 1.56-1.4 1.56-2.53 0-2.28-1.86-3.2-3.9-3.2h-5.68v12.08h5.63c2.4 0 4.95-1.05 4.54-3.82Zm-7.6-5.95h2.95c1.84 0 1.91 2.58.12 2.58h-3.07v-2.58Zm3.29 7.48h-3.29v-2.76h3.29c2.42 0 2.27 2.76 0 2.76Z" class="cls-2"/></g></g><g><path d="M70.97 19.06h1.96l4.15 9.74h-2.22l-.88-2.17h-4.09l-.88 2.17h-2.17l4.15-9.74h-.02Zm2.24 5.7-1.29-3.14-1.29 3.14h2.58ZM77.25 24v-.03c0-2.75 2.07-5 5.04-5 1.82 0 2.92.61 3.81 1.49l-1.35 1.56c-.75-.68-1.51-1.09-2.47-1.09-1.63 0-2.81 1.35-2.81 3.01v.03c0 1.66 1.15 3.04 2.81 3.04 1.11 0 1.78-.44 2.54-1.13l1.35 1.37c-1 1.06-2.1 1.73-3.97 1.73-2.85 0-4.96-2.2-4.96-4.98h.01ZM86.89 24v-.03c0-2.75 2.07-5 5.04-5 1.82 0 2.92.61 3.81 1.49l-1.35 1.56c-.75-.68-1.51-1.09-2.47-1.09-1.63 0-2.81 1.35-2.81 3.01v.03c0 1.66 1.15 3.04 2.81 3.04 1.11 0 1.78-.44 2.54-1.13l1.35 1.37c-1 1.06-2.1 1.73-3.97 1.73-2.85 0-4.96-2.2-4.96-4.98h.01ZM97.24 19.13h4.42c1.23 0 2.18.35 2.82.98.54.54.83 1.3.83 2.21v.03c0 1.56-.84 2.54-2.07 3l2.36 3.45h-2.49l-2.07-3.1h-1.67v3.1h-2.13v-9.67Zm4.29 4.7c1.04 0 1.63-.55 1.63-1.37v-.03c0-.91-.64-1.38-1.67-1.38h-2.11v2.78h2.16-.01ZM106.96 19.13h7.3v1.89h-5.18v1.96h4.56v1.89h-4.56v2.03h5.25v1.89h-7.37v-9.67ZM115.94 19.13h3.77c3.04 0 5.14 2.09 5.14 4.81v.03c0 2.72-2.1 4.84-5.14 4.84h-3.77v-9.67Zm2.13 1.92v5.83h1.64c1.74 0 2.92-1.17 2.92-2.89v-.03c0-1.71-1.17-2.92-2.92-2.92h-1.64ZM126.57 19.13h2.13v9.67h-2.13v-9.67ZM133.09 21.09h-2.94v-1.96h8.02v1.96h-2.94v7.71h-2.13v-7.71ZM139.52 19.13h7.3v1.89h-5.18v1.96h4.56v1.89h-4.56v2.03h5.25v1.89h-7.37v-9.67ZM148.5 19.13h3.77c3.04 0 5.14 2.09 5.14 4.81v.03c0 2.72-2.1 4.84-5.14 4.84h-3.77v-9.67Zm2.13 1.92v5.83h1.64c1.74 0 2.92-1.17 2.92-2.89v-.03c0-1.71-1.17-2.92-2.92-2.92h-1.64ZM67.65 34.56h4.49c1.11 0 1.98.3 2.53.86.44.44.66.98.66 1.64v.03c0 1.09-.58 1.7-1.27 2.09 1.12.43 1.81 1.08 1.81 2.38v.03c0 1.77-1.44 2.65-3.62 2.65h-4.6v-9.67Zm5.57 2.87c0-.64-.5-1-1.4-1h-2.1v2.05h1.96c.94 0 1.53-.3 1.53-1.02v-.03h.01Zm-1.03 2.81h-2.46v2.13h2.53c.94 0 1.51-.33 1.51-1.05v-.03c0-.65-.48-1.05-1.58-1.05ZM77.2 40.09v-5.53h2.13v5.47c0 1.58.79 2.39 2.09 2.39s2.09-.79 2.09-2.32v-5.54h2.13v5.46c0 2.93-1.64 4.37-4.24 4.37s-4.19-1.45-4.19-4.3ZM86.86 42.83l1.26-1.51c.87.72 1.78 1.17 2.89 1.17.87 0 1.4-.35 1.4-.91v-.03c0-.54-.33-.82-1.95-1.23-1.95-.5-3.21-1.04-3.21-2.96v-.03c0-1.76 1.41-2.92 3.39-2.92 1.41 0 2.61.44 3.59 1.23l-1.11 1.6c-.86-.59-1.7-.95-2.51-.95s-1.24.37-1.24.84v.03c0 .64.41.84 2.09 1.27 1.96.51 3.07 1.22 3.07 2.9v.03c0 1.92-1.46 3-3.55 3-1.46 0-2.94-.51-4.1-1.55l-.02.02ZM96.19 34.56h2.13v9.67h-2.13v-9.67ZM100.46 34.56h1.96l4.53 5.96v-5.96h2.1v9.67h-1.81l-4.68-6.15v6.15h-2.1v-9.67ZM111.1 34.56h7.3v1.89h-5.18v1.96h4.56v1.89h-4.56v2.03h5.25v1.89h-7.37v-9.67ZM119.42 42.83l1.26-1.51c.87.72 1.78 1.17 2.89 1.17.87 0 1.4-.35 1.4-.91v-.03c0-.54-.33-.82-1.95-1.23-1.95-.5-3.21-1.04-3.21-2.96v-.03c0-1.76 1.41-2.92 3.39-2.92 1.41 0 2.61.44 3.59 1.23l-1.11 1.6c-.86-.59-1.7-.95-2.52-.95s-1.24.37-1.24.84v.03c0 .64.41.84 2.09 1.27 1.96.51 3.07 1.22 3.07 2.9v.03c0 1.92-1.46 3-3.55 3-1.46 0-2.94-.51-4.1-1.55v.02h-.01ZM127.85 42.83l1.26-1.51c.87.72 1.78 1.17 2.89 1.17.87 0 1.4-.35 1.4-.91v-.03c0-.54-.33-.82-1.95-1.23-1.95-.5-3.21-1.04-3.21-2.96v-.03c0-1.76 1.41-2.92 3.39-2.92 1.41 0 2.61.44 3.59 1.23l-1.11 1.6c-.86-.59-1.7-.95-2.52-.95s-1.24.37-1.24.84v.03c0 .64.41.84 2.09 1.27 1.96.51 3.07 1.22 3.07 2.9v.03c0 1.92-1.46 3-3.55 3-1.46 0-2.94-.51-4.1-1.55v.02Z" class="cls-4"/></g><path d="M175.22 51.04v.75c2.5 0 4.54 2.04 4.55 4.57a4.58 4.58 0 0 1-4.56 4.57c-2.5 0-4.54-2.04-4.55-4.57 0-2.51 2.04-4.56 4.54-4.57l.02-.75m0 0h-.02c-2.93 0-5.29 2.39-5.29 5.32v.03c0 2.92 2.38 5.29 5.3 5.29h.02c2.93 0 5.29-2.39 5.29-5.32v-.03c0-2.92-2.38-5.29-5.3-5.29Z" class="cls-5"/><path d="M176.22 56.74c.82-.19 1.41-.72 1.41-1.6v-.03c.01-.39-.15-.77-.44-1.05-.44-.39-1.02-.6-1.61-.57h-2.44v5.43h.81v-2.05h1.39l1.57 2.05h1l-1.69-2.18Zm-2.28-.61V54.2h1.6c.78 0 1.25.37 1.25.94v.03c0 .63-.53.98-1.29.98v-.02h-1.56Z" class="cls-5"/></g></g></svg>